inDegrees=no
num_controls=7
num_derivatives=13
num_iterations=217
num_multipliers=7
num_parameters=0
num_slacks=7
num_states=26
objective=0.540384
objective_accelerations=0.064291
objective_balance=0.003320
objective_effort=0.046297
objective_height=0.417260
objective_ligament=0.009217
solver_duration=2606.199884
status=Solve_Succeeded
success=true
DataType=double
version=3
OpenSimVersion=4.5
endheader
time	/jointset/ground_pelvis/pelvis_tilt/value	/jointset/ground_pelvis/pelvis_tx/value	/jointset/ground_pelvis/pelvis_ty/value	/jointset/hip_r/hip_flexion_r/value	/jointset/hip_r/hip_adduction_r/value	/jointset/hip_r/hip_rotation_r/value	/jointset/back/lumbar_extension/value	/jointset/patellofemoral_r/patellar_flexion_r/value	/jointset/knee_r/knee_flexion_r/value	/jointset/knee_r/knee_adduction_r/value	/jointset/knee_r/knee_rotation_r/value	/jointset/ankle_r/ankle_angle_r/value	/jointset/subtalar_r/subtalar_angle_r/value	/jointset/ground_pelvis/pelvis_tilt/speed	/jointset/ground_pelvis/pelvis_tx/speed	/jointset/ground_pelvis/pelvis_ty/speed	/jointset/hip_r/hip_flexion_r/speed	/jointset/hip_r/hip_adduction_r/speed	/jointset/hip_r/hip_rotation_r/speed	/jointset/back/lumbar_extension/speed	/jointset/patellofemoral_r/patellar_flexion_r/speed	/jointset/knee_r/knee_flexion_r/speed	/jointset/knee_r/knee_adduction_r/speed	/jointset/knee_r/knee_rotation_r/speed	/jointset/ankle_r/ankle_angle_r/speed	/jointset/subtalar_r/subtalar_angle_r/speed	/forceset/tau_hip_flexion_r	/forceset/tau_hip_adduction_r	/forceset/tau_hip_rotation_r	/forceset/tau_knee_flexion_r	/forceset/tau_ankle_angle_r	/forceset/tau_subtalar_angle_r	/forceset/tau_lumbar_extension	lambda_cid13_p0	lambda_cid14_p0	lambda_cid14_p1	lambda_cid14_p2	lambda_cid14_p3	lambda_cid14_p4	lambda_cid14_p5	/jointset/ground_pelvis/pelvis_tilt/accel	/jointset/ground_pelvis/pelvis_tx/accel	/jointset/ground_pelvis/pelvis_ty/accel	/jointset/hip_r/hip_flexion_r/accel	/jointset/hip_r/hip_adduction_r/accel	/jointset/hip_r/hip_rotation_r/accel	/jointset/back/lumbar_extension/accel	/jointset/patellofemoral_r/patellar_flexion_r/accel	/jointset/knee_r/knee_flexion_r/accel	/jointset/knee_r/knee_adduction_r/accel	/jointset/knee_r/knee_rotation_r/accel	/jointset/ankle_r/ankle_angle_r/accel	/jointset/subtalar_r/subtalar_angle_r/accel	gamma_cid13_p0	gamma_cid14_p0	gamma_cid14_p1	gamma_cid14_p2	gamma_cid14_p3	gamma_cid14_p4	gamma_cid14_p5
0.5	-0.2038653823277938	0.00377253943102502	0.8048087542394039	1.001029231095762	-0.2198438205568115	-0.1231910708104853	-0.3425789150206622	0.8912689176438616	0.8912689176439402	-0.02594991976336322	0.174532209715771	0.2778665772519093	0.07472539422492851	-0.5245604812852882	-0.1748203482376836	-0.5763603219790033	2.234757853538839	0.0009578033444581468	0.1945942299112755	-0.5924211665942841	2.218153084522895	2.218153084523296	-0.4651845003181068	1.024725822268609e-05	0.6196990634266279	0.1938049991397126	-0.1445472064257328	-0.02184758809525232	0.01227822424958844	-0.3641969872712689	0.09628803227141577	-0.0005217508380947424	0.1821203199460431	-19.3523550297296	-9.748294869395217	0.551020623908842	-2.465745086952586	-3.485862298301941	-654.3696746604305	63.70168653436953	0.4830866801798361	0.631817238377997	-0.594592932657118	-1.377881025088372	-0.231591110250589	-0.8566905845967688	1.801250039620382	-1.44583039332345	-1.445830393323454	0.3884907315019134	-0.04029981357689941	-0.7514849484594138	-0.3483605785584197	-1.748697666469461e-07	-1.038547592336348e-07	1.883305093727822e-06	-7.233732603779676e-07	-1.468217270092418e-07	-2.43245206603502e-07	1.133910886729617e-06
0.51	-0.2090856737640075	0.002056151182215749	0.7990168208473095	1.02330427376842	-0.2198466903799723	-0.121288653250222	-0.3484126786576147	0.913374843713178	0.9133748437132027	-0.03058095344575854	0.1745321301366699	0.2840247509313161	0.07664431248668263	-0.5194184005843934	-0.1684383672254341	-0.5818894622093133	2.219947051571136	-0.001532200176130409	0.1858892247055661	-0.5742548677105064	2.202722943694331	2.202722943694255	-0.461003496034819	-1.31218960834481e-05	0.6118438545012955	0.1899318692829384	-0.1521707914790882	-0.02020258080617745	0.01233752716599113	-0.3683956708742457	0.09325777379015192	0.0004936023155982054	0.1888824394891336	-17.87951444209332	-11.00469261963322	0.6317493375328066	-2.318412713261385	-3.012437685409514	-660.3438301752054	63.91515776840038	0.5416672488277486	0.6442037224035688	-0.5115910852226964	-1.578240032586312	-0.2577731065871193	-0.8776796305592703	1.835823775609584	-1.637949101387772	-1.63794910145921	0.435954053067939	0.01846558414974888	-0.8163654920881153	-0.4136262411207554	-1.714171476334301e-07	-1.331229806841675e-07	1.63312711897008e-06	-9.82419470784001e-07	-9.983248271830028e-08	-2.560151836585889e-07	1.004994420430291e-06
0.52	-0.2142521646964556	0.0004041457814800047	0.7931736927495111	1.045422096371406	-0.2198744738650639	-0.1194733405704159	-0.3540624785131589	0.9353171997394557	0.9353171997394217	-0.03516956733005588	0.174532181076144	0.2901016071959659	0.07852313203949225	-0.513800380532161	-0.161943778622978	-0.586599263119812	2.203313839604431	-0.004024929041684473	0.1771732538198069	-0.5556284103126047	2.185439075915172	2.18543907591462	-0.4567005406985017	3.635096989935861e-05	0.6034355804752451	0.1857852573508107	-0.1597943765324431	-0.01855757351710209	0.0123968300823951	-0.3725943544772224	0.09022751530888816	0.001508955469291853	0.1956445590322243	-16.41424663806368	-12.2632061487101	0.7163965718068259	-2.176604221468056	-2.555108220218326	-666.3593382956461	64.19389140888602	0.5782745504473453	0.6543387564193412	-0.4307250686948851	-1.74236302488888	-0.2321361792436947	-0.858883720606724	1.893281742445128	-1.816575783442421	-1.816575783442419	0.4128809421078604	-0.02573140951909969	-0.8620979686029688	-0.4030569936291291	-1.674802966382757e-07	-1.639720443565807e-07	1.340221166517969e-06	-1.259256156582775e-06	-4.943778307900593e-08	-2.61585947444854e-07	8.344923540635336e-07
0.53	-0.2193601683130041	-0.001182408931045162	0.7872876121620567	1.067364622115091	-0.2199271845120121	-0.1177441766858519	-0.3595238474575691	0.957077672927055	0.9570776729267848	-0.0397138087688476	0.1745324638859102	0.2960917345988226	0.08035910421122777	-0.507724697975655	-0.1553535981974098	-0.5904744784237282	2.184894189151074	-0.006510200335992581	0.1686652598989962	-0.5365843976202795	2.166359913979597	2.166359913979319	-0.4521336963394916	2.712331313019207e-05	0.5945110036082268	0.1813739458440315	-0.1672710522105203	-0.01711315879536615	0.01246395525237424	-0.3770491421530345	0.08741898753124083	0.002419241126713069	0.2022670627849986	-14.95977696374052	-13.46640786960734	0.75887540679988	-2.020965179144872	-2.102317254730034	-672.5111379146732	64.45271453774373	0.6335429313572094	0.6633879447580618	-0.3446162715373979	-1.9363577936454	-0.2558054685169592	-0.8461809540004648	1.919108174995102	-1.99790045989034	-1.997900459849222	0.4808449213485586	0.01226552419040781	-0.9195080727414674	-0.4654316595351629	-1.643475016949921e-07	-1.937792192596277e-07	1.053454985408594e-06	-1.518446073733355e-06	-1.543061016961106e-09	-2.623797873524838e-07	6.477018621345712e-07
0.54	-0.2244051495393665	-0.002702655787488145	0.7813670401195035	1.089114033006624	-0.220004564444702	-0.1160999774857324	-0.3647929468465823	0.9786384916830437	0.9786384916825395	-0.04421193001633902	0.1745328112126823	0.3019902421276109	0.08214991058182894	-0.5011959024949502	-0.1486822074065416	-0.5934975541395382	2.164690869174265	-0.008958786190004312	0.1601803169308968	-0.5171744992331987	2.145508189593009	2.145508189593005	-0.4474765024384423	4.925437421033729e-05	0.5851116056615998	0.1767520971239384	-0.1747477278885972	-0.01566874407363033	0.01253108042234941	-0.3815039298288467	0.08461045975359355	0.003329526784134213	0.2088895665377731	-13.51865474442484	-14.67144272175434	0.8059210833818141	-1.871637974757416	-1.671177923773129	-678.7011054255419	64.78363063731915	0.6688971352871069	0.6705808294793373	-0.2602971510736306	-2.09909692957932	-0.2247990911844174	-0.8542735300644541	1.966458881396261	-2.171088273645077	-2.171088273645108	0.4309508505157325	-0.01945966594924352	-0.9570621845247511	-0.4451644362919153	-1.62104300681438e-07	-2.224336661625248e-07	7.734817428060751e-07	-1.758111906422104e-06	4.358572840642463e-08	-2.578885199901338e-07	4.428901334133819e-07
0.55	-0.2293827460703258	-0.004155886374867852	0.7754205290402886	1.110652752462174	-0.2201062100241532	-0.114539457567931	-0.3698663101760583	0.9999820806755307	0.9999820806753064	-0.04866224790350188	0.1745329251994329	0.3077923988263776	0.08389343974962261	-0.494260290603243	-0.1419602297535046	-0.5956581829760202	2.142771947019509	-0.01135737477648731	0.1519416593995302	-0.4974599668283323	2.122918781429263	2.122918781429215	-0.4425657714657835	-2.605166939552217e-05	0.5752422288806833	0.1719251564707496	-0.1819481949330644	-0.01444523470648318	0.012639213809896	-0.3862120344460621	0.08194271173192454	0.004145003344406285	0.2152354895653448	-12.09281608848434	-15.84474451791807	0.8121853673525201	-1.709911869981644	-1.165556947756587	-684.9387902798933	65.10458723243197	0.7153339340166953	0.6735719208891142	-0.1720250285656232	-2.280482974719588	-0.2456876156933009	-0.8062573661116264	1.979680395079142	-2.346459032868694	-2.346459032875343	0.5244081283947855	-0.002164188566866888	-1.013521449176363	-0.5058708383429928	-1.633634491643799e-07	-2.449052235081853e-07	5.965139439361455e-07	-1.938254846598946e-06	7.396593922158905e-08	-2.53432966519031e-07	2.934678116984549e-07
0.5600000000000001	-0.2342890983387873	-0.00554178404818254	0.7694567958169827	1.131963844072918	-0.220231501264132	-0.1130608433257306	-0.3747413821864762	1.021091057197355	1.021091057197409	-0.05306280369938771	0.1745321863732738	0.3134935325524749	0.08558781711918227	-0.486947049995369	-0.1352156245935378	-0.5969419829577054	2.119165300212919	-0.0136879182954931	0.1437991818106091	-0.4775162354215736	2.098585695460344	2.098585695460252	-0.4375240841829713	-0.0001252823130256175	0.5649070111277158	0.1669217374771355	-0.1891486619775315	-0.01322172533933509	0.0127473471974368	-0.3909201390632777	0.0792749637102558	0.00496047990467992	0.2215814125929166	-10.68359046589765	-17.02023631401217	0.823466017993154	-1.555154602401542	-0.6841727575766876	-691.2206141952693	65.50347869941163	0.7444228785204926	0.6751063308653111	-0.08493138011427646	-2.436641859946118	-0.2111900776889742	-0.8350375415753349	2.012298681774707	-2.519823834679507	-2.519823834679519	0.457142112546406	-0.02424458595409885	-1.050230378934991	-0.480460104376975	-1.688254170431169e-07	-2.599573133851622e-07	5.431526775453183e-07	-2.046970315761503e-06	8.664785570688843e-08	-2.49020269717425e-07	2.105127783910408e-07
